<svg xmlns="http://www.w3.org/2000/svg" xmlns:xlink="http://www.w3.org/1999/xlink" viewBox="0 0 225 50"><defs><style>.a{fill:#f1f1f1;}.b{clip-path:url(#a);}.c{fill:url(#b);}.d{fill:url(#c);}.e{fill:url(#d);}.f{fill:url(#e);}.g{fill:url(#f);}.h{fill:url(#g);}.i{fill:url(#h);}.j{fill:#f51702;}.k{fill:#505457;}</style><clipPath id="a"><rect class="a" width="225" height="50" transform="translate(83 60)"/></clipPath><linearGradient id="b" x1="0.976" y1="1.507" x2="0.101" y2="0.542" gradientUnits="objectBoundingBox"><stop offset="0" stop-color="#f5781e"/><stop offset="0.02" stop-color="#f5731c"/><stop offset="0.14" stop-color="#f55213"/><stop offset="0.27" stop-color="#f5380b"/><stop offset="0.4" stop-color="#f52606"/><stop offset="0.53" stop-color="#f51b03"/><stop offset="0.68" stop-color="#f51702"/><stop offset="1" stop-color="#f11004"/></linearGradient><linearGradient id="c" x1="0.031" y1="0.684" x2="1.44" y2="2.052" gradientUnits="objectBoundingBox"><stop offset="0" stop-color="#f11004"/><stop offset="0.2" stop-color="#f51702"/><stop offset="0.34" stop-color="#f51c03"/><stop offset="0.52" stop-color="#f52b08"/><stop offset="0.71" stop-color="#f5430f"/><stop offset="0.9" stop-color="#f56418"/><stop offset="1" stop-color="#f5781e"/></linearGradient><linearGradient id="d" x1="0.377" y1="0.024" x2="0.377" y2="1.193" gradientUnits="objectBoundingBox"><stop offset="0" stop-color="#f5781e"/><stop offset="0.16" stop-color="#f55915"/><stop offset="0.39" stop-color="#f5350b"/><stop offset="0.57" stop-color="#f51f04"/><stop offset="0.68" stop-color="#f51702"/><stop offset="1" stop-color="#f11004"/></linearGradient><linearGradient id="e" x1="0.383" y1="0.074" x2="0.383" y2="1.329" gradientUnits="objectBoundingBox"><stop offset="0" stop-color="#f5781e"/><stop offset="0.5" stop-color="#f51702"/><stop offset="1" stop-color="#f11004"/></linearGradient><linearGradient id="f" x1="0.374" y1="0.225" x2="0.374" y2="1.224" gradientUnits="objectBoundingBox"><stop offset="0" stop-color="#f5781e"/><stop offset="0.05" stop-color="#f56719"/><stop offset="0.18" stop-color="#f5440f"/><stop offset="0.3" stop-color="#f52b08"/><stop offset="0.41" stop-color="#f51c04"/><stop offset="0.5" stop-color="#f51702"/><stop offset="1" stop-color="#f11004"/></linearGradient><linearGradient id="g" x1="1.203" y1="1.264" x2="0.068" y2="0.116" gradientUnits="objectBoundingBox"><stop offset="0" stop-color="#f5781e"/><stop offset="0.13" stop-color="#f56619"/><stop offset="0.71" stop-color="#f51702"/><stop offset="0.72" stop-color="#f51702"/><stop offset="1" stop-color="#f11004"/></linearGradient><linearGradient id="h" x1="0.987" y1="-0.166" x2="-0.064" y2="1.052" gradientUnits="objectBoundingBox"><stop offset="0" stop-color="#f5781e"/><stop offset="0.17" stop-color="#f55213"/><stop offset="0.34" stop-color="#f5320a"/><stop offset="0.48" stop-color="#f51e04"/><stop offset="0.58" stop-color="#f51702"/><stop offset="1" stop-color="#f11004"/></linearGradient></defs><g transform="translate(-83 -60)"><g class="b"><g transform="translate(83 65.179)"><path class="c" d="M6.228,25.108,0,28.677,18.634,39.518l6.228-3.58Z"/><path class="d" d="M31.152,10.8l6.239-3.569L24.965,0,18.736,3.58Z"/><path class="e" d="M31.152,10.8l-.061,21.569,6.228-3.58.072-21.559Z"/><path class="f" d="M18.675,25.139l-.041,14.38,6.228-3.58.02-7.19Z"/><path class="g" d="M24.965,21.6V0L18.7,3.58V17.949Z"/><path class="h" d="M6.269,16.486,0,20.066,31.091,38.127l6.228-3.58Z" transform="translate(0 -5.758)"/><path class="i" d="M6.269,16.486,0,20.066v14.38l6.228-3.58Z" transform="translate(0 -5.758)"/><path class="j" d="M200.761,24.73l-.072.051a6.617,6.617,0,0,0,.491-10.084l-.143-.133A6.6,6.6,0,0,0,196.65,12.9h-9.43v21.61l4.735-4.582V17.581h4.408a2.342,2.342,0,0,1,.286,4.633h-1.493a7.7,7.7,0,0,1-1.023,0v3.825h2.23l2.68,8.407,3.825-3.723Z" transform="translate(0 -5.758)"/><path class="j" d="M61.18,12.9H67.7L60.638,34.5H53.765L46.718,12.9h6.556L56.25,23.85a33.249,33.249,0,0,1,1.023,5.114q.1-1.023.419-2.587t.542-2.434Z" transform="translate(0 -5.758)"/><path class="j" d="M91.411,34.5h-7.65l-7.9-15.218h-.133q.276,3.59.276,5.482V34.5H70.844V12.9h7.619L86.328,27.91h.092q-.2-3.262-.2-5.247V12.9h5.2Z" transform="translate(0 -5.758)"/><path class="j" d="M108.409,34.5H95.6V12.9h12.8v4.684h-6.975v3.4h5.431V25.66h-5.431v4.091h6.975Z" transform="translate(0 -5.758)"/><path class="j" d="M122.676,34.5h-5.84V17.673h-5.277V12.9h16.364v4.776h-5.257Z" transform="translate(0 -5.758)"/><path class="j" d="M156.273,34.5h-6.9l-2.045-9.409q-.143-.593-.46-2.352t-.47-2.945c-.082.644-.2,1.432-.389,2.383s-.348,1.82-.522,2.618-.89,4.03-2.148,9.7h-6.9l-5.349-21.6h5.625l2.383,10.841q.8,3.59,1.094,5.717.194-1.514.685-4.091t.92-4.285l1.912-8.182h5.41l1.851,8.182q.47,1.964.961,4.541t.655,3.845q.194-1.636,1.023-5.686L156,12.907h5.594Z" transform="translate(0 -5.758)"/><path class="j" d="M184.091,23.686q0,5.287-2.6,8.049t-7.63,2.751q-4.93,0-7.568-2.772t-2.639-8.059q0-5.236,2.618-8t7.609-2.761q5.011,0,7.589,2.741T184.091,23.686Zm-14.431,0q0,6.085,4.234,6.075a3.631,3.631,0,0,0,3.191-1.473,8.079,8.079,0,0,0,1.023-4.6,8.182,8.182,0,0,0-1.023-4.643,3.6,3.6,0,0,0-3.15-1.5Q169.66,17.54,169.66,23.686Z" transform="translate(0 -5.758)"/><path class="j" d="M224.877,34.5h-6.586l-4.275-8.264-1.728,1.023v7.22h-5.86V12.9h5.86v9.378a25.751,25.751,0,0,1,1.79-2.761l4.541-6.617H225l-6.811,9.675Z" transform="translate(0 -5.758)"/><path class="k" d="M161.386,44.212a.818.818,0,0,0,.286.286,1.278,1.278,0,0,0,.4.153,2.26,2.26,0,0,0,.46,0h.389a1.441,1.441,0,0,0,.368-.1.7.7,0,0,0,.276-.215.573.573,0,0,0,.072-.358.522.522,0,0,0-.225-.46,1.953,1.953,0,0,0-.573-.256q-.348-.092-.747-.174a3.907,3.907,0,0,1-.747-.215,1.544,1.544,0,0,1-.573-.4,1.023,1.023,0,0,1-.225-.716,1.135,1.135,0,0,1,.164-.614,1.3,1.3,0,0,1,.409-.419,1.892,1.892,0,0,1,.563-.235,2.608,2.608,0,0,1,.624-.082,3.743,3.743,0,0,1,.747.072,1.728,1.728,0,0,1,.6.235,1.237,1.237,0,0,1,.419.46,1.749,1.749,0,0,1,.184.716h-.777a.747.747,0,0,0-.378-.624,1.176,1.176,0,0,0-.348-.133,1.8,1.8,0,0,0-.378,0h-.348a1.176,1.176,0,0,0-.327.092.644.644,0,0,0-.235.184.46.46,0,0,0-.092.3.44.44,0,0,0,.143.337,1.125,1.125,0,0,0,.358.215,3.068,3.068,0,0,0,.491.143l.552.123a5.036,5.036,0,0,1,.573.153,1.871,1.871,0,0,1,.491.245,1.186,1.186,0,0,1,.348.378,1.115,1.115,0,0,1,.133.573,1.319,1.319,0,0,1-.174.716,1.391,1.391,0,0,1-.47.46,1.944,1.944,0,0,1-.655.245,3.855,3.855,0,0,1-.716.072,3.3,3.3,0,0,1-.747-.082,1.841,1.841,0,0,1-.634-.266,1.381,1.381,0,0,1-.44-.491,1.7,1.7,0,0,1-.184-.747h.777a.869.869,0,0,0,.164.43Z" transform="translate(0 -5.758)"/><path class="k" d="M169.773,45.256a1.1,1.1,0,0,1-.562.123.675.675,0,0,1-.481-.174.736.736,0,0,1-.174-.552,1.861,1.861,0,0,1-.747.552,2.588,2.588,0,0,1-1.524.092,1.422,1.422,0,0,1-.5-.225,1.094,1.094,0,0,1-.338-.409,1.37,1.37,0,0,1-.123-.6,1.391,1.391,0,0,1,.133-.665,1.2,1.2,0,0,1,.358-.419,1.657,1.657,0,0,1,.511-.245,5.806,5.806,0,0,1,.593-.133l.614-.092a3.425,3.425,0,0,0,.511-.092.849.849,0,0,0,.348-.174.419.419,0,0,0,.133-.338.777.777,0,0,0-.092-.409.665.665,0,0,0-.245-.235,1.023,1.023,0,0,0-.338-.112h-.368a1.647,1.647,0,0,0-.828.184.8.8,0,0,0-.358.706h-.777a1.7,1.7,0,0,1,.184-.747,1.391,1.391,0,0,1,.44-.491,1.831,1.831,0,0,1,.624-.266,3.283,3.283,0,0,1,.757-.082,4.438,4.438,0,0,1,.634,0,1.667,1.667,0,0,1,.573.184,1.094,1.094,0,0,1,.409.4,1.278,1.278,0,0,1,.153.665v2.434a1.8,1.8,0,0,0,0,.4c0,.082.092.123.215.123a.92.92,0,0,0,.235,0ZM168.5,42.832a1.023,1.023,0,0,1-.389.164l-.5.082-.532.072a1.954,1.954,0,0,0-.481.133.859.859,0,0,0-.348.256.726.726,0,0,0-.133.46.624.624,0,0,0,.082.327.644.644,0,0,0,.2.215.849.849,0,0,0,.286.123,1.616,1.616,0,0,0,.348,0,1.851,1.851,0,0,0,.665-.1,1.391,1.391,0,0,0,.45-.266,1.023,1.023,0,0,0,.256-.348.859.859,0,0,0,.082-.348Z" transform="translate(0 -5.758)"/><path class="k" d="M170.325,41.226v-.685h.8v-.706a1.115,1.115,0,0,1,.338-.88,1.422,1.422,0,0,1,1.023-.3h.256l.256.051v.675h-.44a.757.757,0,0,0-.44.112.481.481,0,0,0-.153.419v.655h.92v.685h-.92v4.091h-.777V41.257Z" transform="translate(0 -5.758)"/><path class="k" d="M177.116,45a2.148,2.148,0,0,1-1.34.4,2.434,2.434,0,0,1-1.023-.184,1.943,1.943,0,0,1-.706-.511,2.178,2.178,0,0,1-.43-.787,3.774,3.774,0,0,1-.164-1.023,2.843,2.843,0,0,1,.164-1.023,2.352,2.352,0,0,1,.46-.777,2.045,2.045,0,0,1,.706-.511,2.158,2.158,0,0,1,.89-.184,1.943,1.943,0,0,1,1.023.256,2.046,2.046,0,0,1,.665.665,2.608,2.608,0,0,1,.348.88,3.773,3.773,0,0,1,.082.91h-3.549a1.861,1.861,0,0,0,.072.593,1.34,1.34,0,0,0,.266.491,1.319,1.319,0,0,0,.47.348,1.616,1.616,0,0,0,.665.133,1.35,1.35,0,0,0,.808-.225,1.1,1.1,0,0,0,.419-.7h.767A1.892,1.892,0,0,1,177.116,45Zm-.184-3.068a1.324,1.324,0,0,0-1.248-.818,1.36,1.36,0,0,0-.542.1,1.258,1.258,0,0,0-.419.286,1.381,1.381,0,0,0-.276.43,1.626,1.626,0,0,0-.123.522h2.72a1.606,1.606,0,0,0-.113-.522Z" transform="translate(0 -5.758)"/><path class="k" d="M185.932,45.256a1.1,1.1,0,0,1-.563.123.675.675,0,0,1-.481-.174.736.736,0,0,1-.174-.552,1.862,1.862,0,0,1-.747.552,2.587,2.587,0,0,1-1.524.092,1.421,1.421,0,0,1-.5-.225,1.094,1.094,0,0,1-.338-.409,1.371,1.371,0,0,1-.123-.6,1.391,1.391,0,0,1,.133-.665,1.2,1.2,0,0,1,.358-.419,1.657,1.657,0,0,1,.511-.245,5.811,5.811,0,0,1,.593-.133l.614-.092a3.425,3.425,0,0,0,.511-.092.849.849,0,0,0,.348-.174.419.419,0,0,0,.133-.338.777.777,0,0,0-.092-.409.665.665,0,0,0-.245-.235,1.023,1.023,0,0,0-.337-.112h-.368a1.647,1.647,0,0,0-.828.184.8.8,0,0,0-.358.706h-.777a1.7,1.7,0,0,1,.184-.747,1.391,1.391,0,0,1,.44-.491,1.831,1.831,0,0,1,.624-.266,3.283,3.283,0,0,1,.757-.082,4.439,4.439,0,0,1,.634,0,1.667,1.667,0,0,1,.573.184,1.094,1.094,0,0,1,.409.4,1.278,1.278,0,0,1,.153.665v2.434a1.8,1.8,0,0,0,0,.4c0,.082.092.123.215.123a.92.92,0,0,0,.235,0Zm-1.268-2.424a1.023,1.023,0,0,1-.389.164l-.5.082-.532.072a1.954,1.954,0,0,0-.481.133.859.859,0,0,0-.348.256.726.726,0,0,0-.133.46.624.624,0,0,0,.082.327.644.644,0,0,0,.2.215.849.849,0,0,0,.286.123,1.616,1.616,0,0,0,.348,0,1.851,1.851,0,0,0,.665-.1,1.391,1.391,0,0,0,.45-.266,1.023,1.023,0,0,0,.256-.348.859.859,0,0,0,.082-.348Z" transform="translate(0 -5.758)"/><path class="k" d="M187.65,40.541v.747h0a1.636,1.636,0,0,1,1.534-.859,2.045,2.045,0,0,1,.777.133,1.278,1.278,0,0,1,.5.358,1.329,1.329,0,0,1,.266.542,2.926,2.926,0,0,1,.082.706v3.068h-.777v-3.17a.941.941,0,0,0-.256-.7.951.951,0,0,0-.706-.256,1.6,1.6,0,0,0-.614.112,1.156,1.156,0,0,0-.44.307,1.35,1.35,0,0,0-.266.47,1.932,1.932,0,0,0-.082.593v2.669h-.777V40.541Z" transform="translate(0 -5.758)"/><path class="k" d="M195.709,45.276v-.644h0a1.145,1.145,0,0,1-.6.563,2.3,2.3,0,0,1-.91.174,2.138,2.138,0,0,1-.961-.2,1.974,1.974,0,0,1-.675-.542,2.352,2.352,0,0,1-.409-.787,3.242,3.242,0,0,1-.133-.951,3.365,3.365,0,0,1,.133-.951,2.25,2.25,0,0,1,.4-.788,1.933,1.933,0,0,1,.675-.532,2.158,2.158,0,0,1,.951-.194,2.321,2.321,0,0,1,.389,0,1.974,1.974,0,0,1,.419.123,1.82,1.82,0,0,1,.4.225,1.268,1.268,0,0,1,.317.348h0V38.741h.777v6.535Zm-2.8-1.677a1.749,1.749,0,0,0,.266.562,1.3,1.3,0,0,0,.46.389,1.391,1.391,0,0,0,.655.143,1.289,1.289,0,0,0,1.115-.563,1.7,1.7,0,0,0,.256-.573,2.77,2.77,0,0,0,.082-.655,2.729,2.729,0,0,0-.082-.675,1.657,1.657,0,0,0-.266-.573,1.33,1.33,0,0,0-.46-.4,1.442,1.442,0,0,0-.685-.153,1.34,1.34,0,0,0-.665.153,1.248,1.248,0,0,0-.44.409,1.8,1.8,0,0,0-.235.583,3.068,3.068,0,0,0-.072.675,2.434,2.434,0,0,0,.082.675Z" transform="translate(0 -5.758)"/><path class="k" d="M201.344,44.212a.818.818,0,0,0,.286.286,1.278,1.278,0,0,0,.4.153,2.26,2.26,0,0,0,.46,0h.389a1.442,1.442,0,0,0,.368-.1.7.7,0,0,0,.276-.215.572.572,0,0,0,.112-.358.522.522,0,0,0-.225-.46,1.953,1.953,0,0,0-.573-.256q-.348-.092-.747-.174a3.907,3.907,0,0,1-.747-.215,1.544,1.544,0,0,1-.573-.4,1.023,1.023,0,0,1-.225-.716,1.135,1.135,0,0,1,.164-.614,1.3,1.3,0,0,1,.409-.419,1.892,1.892,0,0,1,.563-.235,2.607,2.607,0,0,1,.624-.082,3.743,3.743,0,0,1,.747.072,1.728,1.728,0,0,1,.6.235,1.237,1.237,0,0,1,.419.46,1.749,1.749,0,0,1,.184.716h-.736a.747.747,0,0,0-.378-.624,1.176,1.176,0,0,0-.348-.133,1.8,1.8,0,0,0-.378,0h-.348a1.176,1.176,0,0,0-.327.092.644.644,0,0,0-.235.184.46.46,0,0,0-.092.3.44.44,0,0,0,.143.338,1.125,1.125,0,0,0,.358.215,3.07,3.07,0,0,0,.491.143l.552.123a5.036,5.036,0,0,1,.573.153,1.871,1.871,0,0,1,.491.245,1.186,1.186,0,0,1,.348.378,1.115,1.115,0,0,1,.133.573,1.319,1.319,0,0,1-.174.716,1.391,1.391,0,0,1-.47.46,1.943,1.943,0,0,1-.655.245,3.856,3.856,0,0,1-.716.072,3.3,3.3,0,0,1-.747-.082,1.841,1.841,0,0,1-.634-.266,1.38,1.38,0,0,1-.44-.491,1.7,1.7,0,0,1-.184-.747h.777a.869.869,0,0,0,.082.43Z" transform="translate(0 -5.758)"/><path class="k" d="M209.782,45.256a1.1,1.1,0,0,1-.563.123.675.675,0,0,1-.481-.174.736.736,0,0,1-.174-.552,1.861,1.861,0,0,1-.747.552,2.587,2.587,0,0,1-1.524.092,1.422,1.422,0,0,1-.5-.225,1.094,1.094,0,0,1-.338-.409,1.371,1.371,0,0,1-.123-.6,1.391,1.391,0,0,1,.133-.665,1.2,1.2,0,0,1,.358-.419,1.657,1.657,0,0,1,.511-.245,5.809,5.809,0,0,1,.593-.133l.614-.092a3.425,3.425,0,0,0,.511-.092.849.849,0,0,0,.348-.174.419.419,0,0,0,.133-.338.777.777,0,0,0-.092-.409.665.665,0,0,0-.245-.235,1.023,1.023,0,0,0-.337-.113h-.368a1.647,1.647,0,0,0-.828.184.8.8,0,0,0-.358.706h-.777a1.7,1.7,0,0,1,.184-.747,1.391,1.391,0,0,1,.44-.491,1.831,1.831,0,0,1,.624-.266,3.283,3.283,0,0,1,.757-.082,4.438,4.438,0,0,1,.634,0,1.667,1.667,0,0,1,.573.184,1.094,1.094,0,0,1,.409.4,1.278,1.278,0,0,1,.153.665v2.434a1.8,1.8,0,0,0,0,.4c0,.082.092.123.215.123a.92.92,0,0,0,.235,0Zm-1.268-2.424a1.023,1.023,0,0,1-.389.164l-.5.082-.532.072a1.954,1.954,0,0,0-.481.133.859.859,0,0,0-.348.256.726.726,0,0,0-.133.46.624.624,0,0,0,.082.327.644.644,0,0,0,.2.215.849.849,0,0,0,.286.123,1.616,1.616,0,0,0,.348,0,1.851,1.851,0,0,0,.665-.1,1.391,1.391,0,0,0,.45-.266,1.023,1.023,0,0,0,.256-.348.859.859,0,0,0,.082-.348Z" transform="translate(0 -5.758)"/><path class="k" d="M212.063,45.276,210.3,40.541h.869l1.33,3.948h0l1.289-3.948h.818l-1.728,4.735Z" transform="translate(0 -5.758)"/><path class="k" d="M218.945,45a2.148,2.148,0,0,1-1.34.4,2.434,2.434,0,0,1-1.023-.184,1.943,1.943,0,0,1-.706-.511,2.178,2.178,0,0,1-.43-.788,3.774,3.774,0,0,1-.164-1.023,2.843,2.843,0,0,1,.164-1.023,2.352,2.352,0,0,1,.46-.777,2.045,2.045,0,0,1,.706-.511,2.158,2.158,0,0,1,.89-.184,1.943,1.943,0,0,1,1.023.256,2.046,2.046,0,0,1,.665.665,2.608,2.608,0,0,1,.348.88,3.774,3.774,0,0,1,.082.91h-3.549a1.861,1.861,0,0,0,.072.593,1.34,1.34,0,0,0,.266.491,1.32,1.32,0,0,0,.47.348,1.616,1.616,0,0,0,.665.133,1.35,1.35,0,0,0,.808-.225,1.1,1.1,0,0,0,.419-.7h.767A1.892,1.892,0,0,1,218.945,45Zm-.184-3.068a1.324,1.324,0,0,0-1.248-.818,1.36,1.36,0,0,0-.542.1,1.258,1.258,0,0,0-.419.286,1.381,1.381,0,0,0-.276.43,1.627,1.627,0,0,0-.123.522h2.71a1.606,1.606,0,0,0-.1-.522Z" transform="translate(0 -5.758)"/><path class="k" d="M224.223,45.276v-.644h0a1.146,1.146,0,0,1-.6.562,2.3,2.3,0,0,1-.91.174,2.138,2.138,0,0,1-.961-.2,1.974,1.974,0,0,1-.675-.542,2.353,2.353,0,0,1-.409-.787,3.242,3.242,0,0,1-.133-.951,3.365,3.365,0,0,1,.133-.951,2.25,2.25,0,0,1,.4-.787,1.933,1.933,0,0,1,.675-.532,2.158,2.158,0,0,1,.951-.194,2.321,2.321,0,0,1,.389,0,1.974,1.974,0,0,1,.419.123,1.82,1.82,0,0,1,.4.225,1.268,1.268,0,0,1,.317.348h0V38.741H225v6.535Zm-2.8-1.677a1.749,1.749,0,0,0,.266.562,1.3,1.3,0,0,0,.46.389,1.391,1.391,0,0,0,.655.143,1.289,1.289,0,0,0,1.115-.563,1.7,1.7,0,0,0,.256-.573,2.77,2.77,0,0,0,.082-.655,2.729,2.729,0,0,0-.082-.675,1.656,1.656,0,0,0-.266-.573,1.33,1.33,0,0,0-.46-.4,1.442,1.442,0,0,0-.685-.153,1.34,1.34,0,0,0-.665.153,1.248,1.248,0,0,0-.44.409,1.8,1.8,0,0,0-.235.583,3.068,3.068,0,0,0-.072.675A2.434,2.434,0,0,0,221.42,43.6Z" transform="translate(0 -5.758)"/></g></g></g></svg>