<svg xmlns="http://www.w3.org/2000/svg" viewBox="0 0 20 20.2" height="18"><defs><style>.a{fill:#9c27b0;}</style></defs><path class="a" d="M340.5,1011.6l-4.6,3.8-1.3-1.5,4.6-3.8Zm-2.2,3.2a8.6,8.6,0,0,1,6.4-2.6,9,9,0,0,1,6.4,2.6,8.448,8.448,0,0,1,2.6,6.4,9,9,0,0,1-2.6,6.4,8.449,8.449,0,0,1-6.4,2.6,9,9,0,0,1-6.4-2.6,8.448,8.448,0,0,1-2.6-6.4A8.6,8.6,0,0,1,338.3,1014.8Zm1.4,11.4a6.662,6.662,0,0,0,4.9,2.1,6.505,6.505,0,0,0,4.9-2.1,7.028,7.028,0,0,0,2-5,6.632,6.632,0,0,0-2-4.9,6.966,6.966,0,0,0-9.8,9.9Zm5.5-10v5.2l4,2.3-.8,1.2-4.7-2.8v-6h1.5Zm9.4-2.3-1.3,1.5-4.6-3.9,1.3-1.5Z" transform="translate(-334.6 -1010)"/></svg>