<svg xmlns="http://www.w3.org/2000/svg" viewBox="0 0 21.1 21.1" width="18" height="18"><defs><style>.a{fill:none;stroke:#8bc34a;stroke-width:1.1px;}.b{fill:#8bc34a;}</style></defs><g transform="translate(-232.95 -1190.95)"><path class="a" d="M189.7,1048a9.506,9.506,0,0,1,7.1-2.9,9.9,9.9,0,0,1,7.1,2.9,9.356,9.356,0,0,1,2.9,7.1,9.9,9.9,0,0,1-2.9,7.1,9.356,9.356,0,0,1-7.1,2.9,9.9,9.9,0,0,1-7.1-2.9,9.356,9.356,0,0,1-2.9-7.1A9.733,9.733,0,0,1,189.7,1048Z" transform="translate(46.7 146.4)"/><path class="b" d="M193.515,1057.3l6.686-6.686-1.04-1.114-5.646,5.646-2.674-2.674-1.04,1.04Z" transform="translate(48.2 148.5)"/></g></svg>